<svg width="0" height="0"><symbol xmlns="http://www.w3.org/2000/svg" id="arrow-back" fill="none" viewBox="0 0 24 24"><path fill="currentColor" d="M19 11H7.14l3.63-4.36a1.001 1.001 0 0 0-1.54-1.28l-5 6a1.191 1.191 0 0 0-.09.15c0 .05 0 .08-.07.13A1 1 0 0 0 4 12a1 1 0 0 0 .07.36c0 .05 0 .08.07.13.026.052.056.102.09.15l5 6A1 1 0 0 0 10 19a1 1 0 0 0 .77-1.64L7.14 13H19a1 1 0 0 0 0-2Z"/></symbol><symbol xmlns="http://www.w3.org/2000/svg" id="arrow-forward" fill="none" viewBox="0 0 24 24"><path fill="currentColor" d="M5 13h11.86l-3.63 4.36a1 1 0 1 0 1.54 1.28l5-6c.034-.048.064-.098.09-.15 0-.05.05-.08.07-.13A1 1 0 0 0 20 12a1 1 0 0 0-.07-.36c0-.05-.05-.08-.07-.13a1.198 1.198 0 0 0-.09-.15l-5-6a1 1 0 0 0-1.41-.13.999.999 0 0 0-.13 1.41L16.86 11H5a1 1 0 0 0 0 2Z"/></symbol><symbol xmlns="http://www.w3.org/2000/svg" id="close-eye" fill="none" viewBox="0 0 24 24"><path fill="currentColor" d="M4.71 3.29a1.004 1.004 0 1 0-1.42 1.42l5.63 5.63a3.5 3.5 0 0 0 4.74 4.74l5.63 5.63a1.002 1.002 0 0 0 1.639-.325 1 1 0 0 0-.219-1.095l-16-16ZM12 13.5a1.5 1.5 0 0 1-1.5-1.5v-.07l1.56 1.56-.06.01Z"/><path fill="currentColor" d="M12.22 17c-4.3.1-7.12-3.59-8-5 .626-1 1.38-1.914 2.24-2.72L5 7.87a15.89 15.89 0 0 0-2.87 3.63 1 1 0 0 0 0 1c.63 1.09 4 6.5 9.89 6.5h.25a9.48 9.48 0 0 0 3.23-.67l-1.58-1.58a7.739 7.739 0 0 1-1.7.25Zm9.65-5.5c-.64-1.11-4.17-6.68-10.14-6.5a9.48 9.48 0 0 0-3.23.67l1.58 1.58a7.74 7.74 0 0 1 1.7-.25c4.29-.11 7.11 3.59 8 5a13.699 13.699 0 0 1-2.29 2.72L19 16.13a15.89 15.89 0 0 0 2.91-3.63 1 1 0 0 0-.04-1Z"/></symbol><symbol xmlns="http://www.w3.org/2000/svg" id="edit" fill="none" viewBox="0 0 16 16"><path fill="currentColor" d="M12.667 13.333H3.333a.667.667 0 1 0 0 1.334h9.334a.666.666 0 1 0 0-1.334ZM3.333 12h.06l2.78-.253c.305-.03.59-.165.807-.38l6-6a1.28 1.28 0 0 0-.047-1.807l-1.826-1.827a1.333 1.333 0 0 0-1.774-.046l-6 6c-.215.217-.35.502-.38.806l-.286 2.78a.667.667 0 0 0 .666.727Zm6.847-9.333L12 4.487l-1.333 1.3L8.88 4l1.3-1.333Zm-5.933 5.94L8 4.88l1.8 1.8-3.733 3.733-2 .187.18-1.993Z"/></symbol><symbol xmlns="http://www.w3.org/2000/svg" id="eye" fill="none" viewBox="0 0 24 24"><path fill="currentColor" d="M21.87 11.5c-.64-1.11-4.16-6.68-10.14-6.5-5.53.14-8.73 5-9.6 6.5a1 1 0 0 0 0 1c.63 1.09 4 6.5 9.89 6.5h.25c5.53-.14 8.74-5 9.6-6.5a1 1 0 0 0 0-1ZM12.22 17c-4.31.1-7.12-3.59-8-5 1-1.61 3.61-4.9 7.61-5 4.29-.11 7.11 3.59 8 5-1.03 1.61-3.61 4.9-7.61 5Z"/><path fill="currentColor" d="M12 8.5a3.5 3.5 0 1 0 0 7 3.5 3.5 0 0 0 0-7Zm0 5a1.5 1.5 0 1 1 0-3 1.5 1.5 0 0 1 0 3Z"/></symbol><symbol xmlns="http://www.w3.org/2000/svg" id="log-out" fill="none" viewBox="0 0 24 24"><path fill="currentColor" d="M7 6a1 1 0 0 0 0-2H5a1 1 0 0 0-1 1v14a1 1 0 0 0 1 1h2a1 1 0 0 0 0-2H6V6h1Zm13.82 5.42-2.82-4a1 1 0 1 0-1.63 1.16L18.09 11H10a1 1 0 0 0 0 2h8l-1.8 2.4a1 1 0 0 0 1.6 1.2l3-4a1 1 0 0 0 .02-1.18Z"/></symbol><symbol xmlns="http://www.w3.org/2000/svg" id="loupe" fill="none" viewBox="0 0 24 24"><path fill="currentColor" d="m20.71 19.29-3.4-3.39A7.92 7.92 0 0 0 19 11a8 8 0 1 0-8 8 7.92 7.92 0 0 0 4.9-1.69l3.39 3.4a1.002 1.002 0 0 0 1.639-.325 1 1 0 0 0-.219-1.095ZM5 11a6 6 0 1 1 12 0 6 6 0 0 1-12 0Z"/></symbol><symbol xmlns="http://www.w3.org/2000/svg" id="paginate-arrow-left" fill="none" viewBox="0 0 24 24"><path fill="currentColor" d="M13.83 19a1 1 0 0 1-.78-.37l-4.83-6a1 1 0 0 1 0-1.27l5-6a1.001 1.001 0 0 1 1.54 1.28L10.29 12l4.32 5.36a1 1 0 0 1-.78 1.64Z"/></symbol><symbol xmlns="http://www.w3.org/2000/svg" id="paginate-arrow-right" fill="none" viewBox="0 0 24 24"><path fill="currentColor" d="M10 19a1 1 0 0 1-.77-1.64L13.71 12 9.39 6.63a1 1 0 0 1 .15-1.41 1 1 0 0 1 1.46.15l4.83 6a1 1 0 0 1 0 1.27l-5 6A1 1 0 0 1 10 19Z"/></symbol><symbol xmlns="http://www.w3.org/2000/svg" id="profile" fill="none" viewBox="0 0 24 24"><path fill="currentColor" d="M12 11a4 4 0 1 0 0-8 4 4 0 0 0 0 8Zm0-6a2 2 0 1 1 0 4 2 2 0 0 1 0-4Zm0 8a7 7 0 0 0-7 7 1 1 0 1 0 2 0 5 5 0 1 1 10 0 1 1 0 0 0 2 0 7 7 0 0 0-7-7Z"/></symbol></svg>